<?xml version="1.0" encoding="UTF-8" standalone="no"?>
<svg
   xmlns:dc="http://purl.org/dc/elements/1.1/"
   xmlns:cc="http://creativecommons.org/ns#"
   xmlns:rdf="http://www.w3.org/1999/02/22-rdf-syntax-ns#"
   xmlns:svg="http://www.w3.org/2000/svg"
   xmlns="http://www.w3.org/2000/svg"
   xmlns:sodipodi="http://sodipodi.sourceforge.net/DTD/sodipodi-0.dtd"
   xmlns:inkscape="http://www.inkscape.org/namespaces/inkscape"
   width="1024"
   height="1024"
   viewBox="0 0 270.93333 270.93334"
   version="1.1"
   id="svg8"
   inkscape:version="1.0 (4035a4fb49, 2020-05-01)"
   sodipodi:docname="favicon.svg"
   inkscape:export-filename="/home/yarmo/dev/web/temp/profile_avatar.png"
   inkscape:export-xdpi="96"
   inkscape:export-ydpi="96">
  <defs
     id="defs2">
    <rect
       x="9.5543264"
       y="97.921372"
       width="242.83406"
       height="73.136201"
       id="rect845" />
    <rect
       x="21.411714"
       y="91.503966"
       width="232.74502"
       height="78.06641"
       id="rect839" />
  </defs>
  <sodipodi:namedview
     id="base"
     pagecolor="#ffffff"
     bordercolor="#666666"
     borderopacity="1.0"
     inkscape:pageopacity="0.0"
     inkscape:pageshadow="2"
     inkscape:zoom="0.49497475"
     inkscape:cx="654.10392"
     inkscape:cy="793.33235"
     inkscape:document-units="px"
     inkscape:current-layer="layer2"
     inkscape:document-rotation="0"
     showgrid="false"
     units="px"
     inkscape:window-width="1920"
     inkscape:window-height="1015"
     inkscape:window-x="0"
     inkscape:window-y="36"
     inkscape:window-maximized="1"
     showguides="true">
    <inkscape:grid
       type="xygrid"
       id="grid2770"
       empspacing="8" />
  </sodipodi:namedview>
  <metadata
     id="metadata5">
    <rdf:RDF>
      <cc:Work
         rdf:about="">
        <dc:format>image/svg+xml</dc:format>
        <dc:type
           rdf:resource="http://purl.org/dc/dcmitype/StillImage" />
        <dc:title />
      </cc:Work>
    </rdf:RDF>
  </metadata>
  <g
     inkscape:groupmode="layer"
     id="layer2"
     inkscape:label="Layer 2"
     style="display:inline">
    <rect
       ry="135.46667"
       style="opacity:1;fill:#ffffff;stroke:none;stroke-width:22.8499"
       id="rect900"
       width="270.93335"
       height="270.93335"
       x="-1.7763568e-15"
       y="-1.7763568e-15" />
    <path
       id="path1943-8"
       style="display:inline;fill:#3f9acc;fill-opacity:1;fill-rule:evenodd;stroke-width:2.60879"
       d="M 201.21484 0 L 201.21484 105.11328 A 511.99997 511.99997 0 0 1 312.66211 40.398438 L 312.66211 1.3105469 L 201.21484 0 z M 312.66211 40.398438 L 312.66211 483.81055 L 684.99023 30.111328 A 511.99997 511.99997 0 0 0 512 0 A 511.99997 511.99997 0 0 0 312.66211 40.398438 z M 684.99023 30.111328 A 511.99997 511.99997 0 0 1 790.18945 82.169922 L 856.78516 0 L 708.625 1.3105469 L 684.99023 30.111328 z M 790.18945 82.169922 L 430.66406 525.76758 L 807.4082 930.18359 A 511.99997 511.99997 0 0 0 1024 512 A 511.99997 511.99997 0 0 0 790.18945 82.169922 z M 807.4082 930.18359 A 511.99997 511.99997 0 0 1 696.47266 989.61133 L 728.29297 1024 L 894.80664 1024 L 807.4082 930.18359 z M 696.47266 989.61133 L 354.61719 620.16797 L 312.66211 672.61523 L 312.66211 983.60156 A 511.99997 511.99997 0 0 0 512 1024 A 511.99997 511.99997 0 0 0 696.47266 989.61133 z M 312.66211 983.60156 A 511.99997 511.99997 0 0 1 201.21484 918.88477 L 201.21484 1024 L 312.66211 1024 L 312.66211 983.60156 z M 201.21484 918.88477 L 201.21484 105.11328 A 511.99997 511.99997 0 0 0 0 512 A 511.99997 511.99997 0 0 0 201.21484 918.88477 z "
       transform="scale(0.26458333)" />
  </g>
  <g
     inkscape:label="Layer 1"
     inkscape:groupmode="layer"
     id="layer1"
     style="display:inline">
    <text
       xml:space="preserve"
       id="text837"
       style="fill:black;fill-opacity:1;line-height:1.25;stroke:none;font-family:sans-serif;font-style:normal;font-weight:normal;font-size:10.58333333px;white-space:pre;shape-inside:url(#rect839);" />
    <g
       aria-label="K"
       transform="matrix(6.5556979,0,0,6.5556979,-40.621153,-747.40555)"
       id="text843"
       style="font-style:normal;font-variant:normal;font-weight:normal;font-stretch:normal;font-size:63.5px;line-height:1.25;font-family:'Dank Mono';-inkscape-font-specification:'Dank Mono, Normal';font-variant-ligatures:normal;font-variant-caps:normal;font-variant-numeric:normal;font-variant-east-asian:normal;white-space:pre;shape-inside:url(#rect845);fill:#000000;fill-opacity:1;stroke:none" />
  </g>
</svg>
