<?xml version="1.0" encoding="UTF-8" standalone="no"?>
<!DOCTYPE svg PUBLIC "-//W3C//DTD SVG 1.1//EN" "http://www.w3.org/Graphics/SVG/1.1/DTD/svg11.dtd">
<svg width="100%" height="100%" viewBox="0 0 1024 1024" version="1.1" xmlns="http://www.w3.org/2000/svg" xmlns:xlink="http://www.w3.org/1999/xlink" xml:space="preserve" xmlns:serif="http://www.serif.com/" style="fill-rule:evenodd;clip-rule:evenodd;stroke-linejoin:round;stroke-miterlimit:2;">
    <g id="Background-Round" serif:id="Background Round">
        <path id="rect859" d="M1024,128C1024,57.355 966.645,0 896,0L128,0C57.355,0 0,57.355 0,128L0,896C0,966.645 57.355,1024 128,1024L896,1024C966.645,1024 1024,966.645 1024,896L1024,128Z" style="fill:url(#_Linear1);"/>
    </g>
    <g id="Logo">
        <g id="path1632" transform="matrix(0.264583,0,0,0.264583,0,0)">
            <path d="M2253.77,664.99C2149.75,664.991 2065.43,749.314 2065.43,853.332C2065.43,916.198 2096.63,973.602 2146.51,1008.17C2160.88,1018.12 2169.14,1019.27 2171.05,1034.84C2172.97,1050.4 2151.64,1064.83 2151.64,1064.83L1167.95,1829.93C1079.52,1898.73 1027.79,2004.49 1027.78,2116.53L1027.78,2842.2C1027.78,3042.74 1190.34,3205.3 1390.87,3205.3C1591.4,3205.3 1753.97,3042.74 1753.97,2842.2L1753.97,2294.11L2702.29,1556.55C2841.5,1448.28 2881.44,1257.32 2802.28,1103.81C2796.37,1092.35 2794.49,1088.28 2782.18,1083.5C2769.88,1078.72 2759.98,1084.07 2747.67,1088.69C2730.75,1095.04 2712.74,1098.34 2694.46,1098.34C2610.81,1098.34 2542.99,1030.53 2542.99,946.875C2543,935.523 2545.01,928.866 2541.65,921.802C2538.29,914.738 2529.36,910.172 2520.57,909.169C2505.98,907.503 2491.3,906.723 2476.6,906.836C2462.18,906.945 2451.22,905.65 2445,895.102C2438.79,884.553 2442.12,872.464 2442.12,853.332C2442.12,749.311 2357.79,664.987 2253.77,664.99Z" style="fill:white;fill-rule:nonzero;"/>
        </g>
        <path d="M464,508.622L709.251,672.123C753.336,701.513 765.267,761.166 735.877,805.251C706.487,849.336 646.834,861.267 602.749,831.877L314.749,639.877C288.042,622.072 272,592.098 272,560L272,336C272,283.016 315.016,240 368,240C420.984,240 464,283.016 464,336L464,508.622Z" style="fill:white;"/>
        <circle id="path869-7" cx="503.532" cy="185.784" r="33.993" style="fill:white;"/>
        <circle id="path869-7-5" cx="535.989" cy="119.866" r="22.178" style="fill:white;"/>
        <circle id="circle1672" cx="475.598" cy="103.58" r="15.485" style="fill:white;"/>
        <circle id="circle1680" cx="712.91" cy="250.527" r="27.168" style="fill:white;"/>
    </g>
    <defs>
        <linearGradient id="_Linear1" x1="0" y1="0" x2="1" y2="0" gradientUnits="userSpaceOnUse" gradientTransform="matrix(1024,-1024,1024,1024,1.88976e-05,1024)"><stop offset="0" style="stop-color:rgb(56,141,194);stop-opacity:1"/><stop offset="1" style="stop-color:rgb(141,118,243);stop-opacity:1"/></linearGradient>
    </defs>
</svg>
