<svg version="1.1" viewBox="0 0 24 24" xmlns="http://www.w3.org/2000/svg">
 <path d="m10.89 0c-0.5512 2.702e-7 -1.008 0.4571-1.008 1.008 0 0.5512 0.4571 1.008 1.008 1.008 0.2431 0 0.4661-0.0887 0.6414-0.2354 0.01238 0.05092 0.0265 0.1007 0.04512 0.1491-0.7892 0.07774-1.414 0.7551-1.414 1.563 0 0.8594 0.706 1.563 1.565 1.563 0.2774 0 0.5392-0.07366 0.767-0.202 0.05714 0.4898 0.3658 0.8914 0.716 1.232l-2.219 1.72c-0.1251-1.779-1.54-3.225-3.35-3.225-1.891 0-3.441 1.542-3.441 3.433v6.724c-3.902e-4 -0.0156 3.8e-6 -0.026 0 0.02942v5.791c0 1.893 1.548 3.441 3.441 3.441 1.699 0 2.96-1.32 3.233-2.944l3.545 2.366c1.574 1.049 3.718 0.6164 4.767-0.9573 1.049-1.574 0.6242-3.718-0.9494-4.767l-4.716-3.137 4.916-3.825c1.293-1.006 1.683-2.776 0.9828-4.217 0.2337-0.2976 0.3747-0.6704 0.3747-1.075 0-0.9606-0.7891-1.75-1.75-1.75-0.6534 1e-7 -1.228 0.3646-1.528 0.9004-0.01712-6.411e-4 -0.03382-0.00323-0.051-0.00391-0.08719-1.045-0.87-1.942-1.936-1.942-0.4834 4.6e-6 -0.9293 0.1707-1.281 0.4551-0.04123-0.1579-0.1067-0.3062-0.1922-0.4414 0.4963-0.1534 0.8651-0.622 0.8651-1.163 0-0.6626-0.5516-1.208-1.214-1.208-0.3405 0-0.6503 0.1447-0.8709 0.3747-0.1427-0.3849-0.5149-0.665-0.9455-0.665zm0 0.9357c0.03545 0 0.07258 0.03713 0.07258 0.07258 0 0.03545-0.03712 0.07454-0.07258 0.07454-0.03545 0-0.08239-0.03909-0.08239-0.07454 0-0.03545 0.04694-0.07258 0.08239-0.07258zm1.816 0.4374c0.076 0 0.1255 0.04954 0.1255 0.1255 0 0.076-0.04954 0.1255-0.1255 0.1255-0.076 0-0.1275-0.04954-0.1275-0.1255 0-0.076 0.05151-0.1255 0.1275-0.1255zm-0.9788 1.638c0.2727 1e-7 0.4806 0.2098 0.4806 0.4826 0 0.2727-0.2078 0.4806-0.4806 0.4806-0.2727 0-0.4826-0.2078-0.4826-0.4806 0-0.2727 0.2098-0.4826 0.4826-0.4826zm2.801 0.7258c0.5365-1.55e-5 0.9573 0.4208 0.9573 0.9573 0 0.0449-0.0071 0.09728-0.0079 0.1922-7.64e-4 0.09495 0.01177 0.2592 0.104 0.4159 0.09067 0.1538 0.2755 0.2826 0.4159 0.3256 0.1403 0.04299 0.2351 0.03781 0.3099 0.03728 0.1106 0.8569 0.8508 1.528 1.736 1.528 0.1167 3e-7 0.2308-0.01313 0.3413-0.0353 0.3731 0.951 0.2233 2.066-0.6159 2.719l-5.508 4.284a0.5428 0.5428 0 0 0 0.02942 0.8827l5.337 3.558c1.085 0.7232 1.376 2.177 0.6532 3.262-0.7232 1.085-2.177 1.376-3.262 0.6532l-4.182-2.787a0.5428 0.5428 0 0 0-0.8376 0.4512v0.3786c0 1.306-1.051 2.358-2.358 2.358-1.306 0-2.35-1.051-2.35-2.358v-5.791c-3e-6 0.04601-8.017e-4 0.04336 0-0.02156a0.5428 0.5428 0 0 0 0-2e-3 0.5428 0.5428 0 0 0 0-2e-3 0.5428 0.5428 0 0 0 0-2e-3 0.5428 0.5428 0 0 0 0-2e-3v-6.724c0-1.304 1.046-2.35 2.35-2.35 1.304 0 2.35 1.046 2.35 2.35v0.8376a0.5428 0.5428 0 0 0 0.8749 0.4296l3.182-2.468-0.02942 0.01374s0.08749-0.05788 0.1765-0.155c0.08906-0.09708 0.2481-0.2676 0.2079-0.5924-0.01894-0.1544-0.1333-0.3798-0.2452-0.4747-0.1119-0.0949-0.1512-0.1021-0.1765-0.1197-0.2538-0.1759-0.4159-0.4705-0.4159-0.7925 0-0.5365 0.4266-0.9572 0.9631-0.9573zm3.515 1.038c0.374 0 0.6669 0.2949 0.6669 0.6689 0 0.2634-0.1462 0.4853-0.3629 0.5944-5.26e-4 2.647e-4 -0.0014-2.637e-4 -2e-3 0-0.03386 0.01188-0.0579 0.02194-0.07258 0.02744-0.03712 0.01393-0.0737 0.0257-0.1118 0.03337-0.03811 0.00763-0.07742 0.01177-0.1177 0.01177-0.04676 0-0.09349-0.00497-0.1373-0.01374-0.04382-0.00873-0.0855-0.02255-0.1255-0.03923-0.04004-0.01666-0.07833-0.03705-0.1138-0.06081-0.03545-0.02376-0.06807-0.05041-0.09807-0.08042-0.03003-0.03003-0.05667-0.06264-0.08042-0.09808-0.02376-0.03545-0.04415-0.07373-0.06081-0.1138-0.01667-0.04004-0.03048-0.08173-0.03923-0.1255-0.0087-0.04381-0.01177-0.0886-0.01177-0.1354 1e-5 -0.01184 0.0038-0.04005 0.0059-0.0922 2.62e-4 -0.00664-1.63e-4 -0.00398 0-0.01177 0.04808-0.3236 0.3221-0.5649 0.6611-0.5649z"/>
</svg>
